<svg width="136" height="59" viewBox="0 0 136 59" fill="none" xmlns="http://www.w3.org/2000/svg">
<path fill-rule="evenodd" clip-rule="evenodd" d="M59.8703 4.70107C39.7402 7.29606 18.7314 11.7227 1.28759 16.9559L0.712891 15.0402C18.2691 9.77336 39.3853 5.32527 59.6146 2.71748C79.8278 0.111771 99.2318 -0.666758 113.336 1.44751C120.376 2.50278 126.207 4.29389 130.158 7.0275C132.145 8.40207 133.685 10.0346 134.645 11.9579C135.61 13.8894 135.963 16.0577 135.656 18.447C135.05 23.1777 131.867 28.7573 125.813 35.2935C120.158 41.3986 111.909 48.4327 100.641 56.4996H116V58.4996H97.5002C97.1886 58.4996 96.8947 58.3543 96.7055 58.1066C96.5163 57.859 96.4535 57.5372 96.5355 57.2365L101.035 40.7359L102.965 41.2621L99.1987 55.0724C110.548 46.9657 118.769 39.9548 124.346 33.9344C130.309 27.4959 133.146 22.298 133.672 18.1927C133.933 16.1639 133.629 14.3996 132.856 12.8517C132.079 11.2956 130.798 9.90224 129.02 8.67223C125.442 6.19666 119.969 4.46412 113.039 3.42541C99.2062 1.35175 80.0164 2.10401 59.8703 4.70107Z" fill="black"/>
</svg>
