<svg width="56" height="56" viewBox="0 0 56 56" fill="none" xmlns="http://www.w3.org/2000/svg">
<path d="M56 28C56 43.464 43.464 56 28 56C12.536 56 0 43.464 0 28C0 12.536 12.536 0 28 0C43.464 0 56 12.536 56 28Z" fill="#F9ECD3"/>
<path d="M21 25V20C21 19.7348 21.1054 19.4804 21.2929 19.2929C21.4804 19.1054 21.7348 19 22 19H34C34.2652 19 34.5196 19.1054 34.7071 19.2929C34.8946 19.4804 35 19.7348 35 20V25C35 25.2652 34.8946 25.5196 34.7071 25.7071C34.5196 25.8946 34.2652 26 34 26H22C21.7348 26 21.4804 25.8946 21.2929 25.7071C21.1054 25.5196 21 25.2652 21 25ZM39 30H22C21.7348 30 21.4804 30.1054 21.2929 30.2929C21.1054 30.4804 21 30.7348 21 31V36C21 36.2652 21.1054 36.5196 21.2929 36.7071C21.4804 36.8946 21.7348 37 22 37H39C39.2652 37 39.5196 36.8946 39.7071 36.7071C39.8946 36.5196 40 36.2652 40 36V31C40 30.7348 39.8946 30.4804 39.7071 30.2929C39.5196 30.1054 39.2652 30 39 30Z" fill="black" fill-opacity="0.2"/>
<path d="M39 29H22C21.4696 29 20.9609 29.2107 20.5858 29.5858C20.2107 29.9609 20 30.4696 20 31V36C20 36.5304 20.2107 37.0391 20.5858 37.4142C20.9609 37.7893 21.4696 38 22 38H39C39.5304 38 40.0391 37.7893 40.4142 37.4142C40.7893 37.0391 41 36.5304 41 36V31C41 30.4696 40.7893 29.9609 40.4142 29.5858C40.0391 29.2107 39.5304 29 39 29ZM39 36H22V31H39V36ZM18 17V39C18 39.2652 17.8946 39.5196 17.7071 39.7071C17.5196 39.8946 17.2652 40 17 40C16.7348 40 16.4804 39.8946 16.2929 39.7071C16.1054 39.5196 16 39.2652 16 39V17C16 16.7348 16.1054 16.4804 16.2929 16.2929C16.4804 16.1054 16.7348 16 17 16C17.2652 16 17.5196 16.1054 17.7071 16.2929C17.8946 16.4804 18 16.7348 18 17ZM22 27H34C34.5304 27 35.0391 26.7893 35.4142 26.4142C35.7893 26.0391 36 25.5304 36 25V20C36 19.4696 35.7893 18.9609 35.4142 18.5858C35.0391 18.2107 34.5304 18 34 18H22C21.4696 18 20.9609 18.2107 20.5858 18.5858C20.2107 18.9609 20 19.4696 20 20V25C20 25.5304 20.2107 26.0391 20.5858 26.4142C20.9609 26.7893 21.4696 27 22 27ZM22 20H34V25H22V20Z" fill="black"/>
</svg>
