<svg width="44" height="44" viewBox="0 0 44 44" fill="none" xmlns="http://www.w3.org/2000/svg">
<path fill-rule="evenodd" clip-rule="evenodd" d="M7 12.5C7 12.2239 7.21664 12 7.48387 12H36.5161C36.7834 12 37 12.2239 37 12.5C37 12.7761 36.7834 13 36.5161 13H7.48387C7.21664 13 7 12.7761 7 12.5Z" fill="black"/>
<path fill-rule="evenodd" clip-rule="evenodd" d="M7 22C7 21.7239 7.21664 21.5 7.48387 21.5H36.5161C36.7834 21.5 37 21.7239 37 22C37 22.2761 36.7834 22.5 36.5161 22.5H7.48387C7.21664 22.5 7 22.2761 7 22Z" fill="black"/>
<path fill-rule="evenodd" clip-rule="evenodd" d="M7 31.5C7 31.2239 7.21664 31 7.48387 31H36.5161C36.7834 31 37 31.2239 37 31.5C37 31.7761 36.7834 32 36.5161 32H7.48387C7.21664 32 7 31.7761 7 31.5Z" fill="black"/>
</svg>
