<svg width="44" height="44" viewBox="0 0 44 44" fill="none" xmlns="http://www.w3.org/2000/svg">
<path d="M32.6176 31.9105C32.8066 32.0995 32.8015 32.411 32.6062 32.6062C32.411 32.8015 32.0995 32.8066 31.9105 32.6176L21.9998 22.7069L12.0891 32.6176C11.9001 32.8066 11.5887 32.8015 11.3934 32.6062C11.1981 32.411 11.193 32.0995 11.382 31.9105L21.2927 21.9998L11.3816 12.0887C11.1926 11.8998 11.1978 11.5883 11.393 11.393C11.5883 11.1978 11.8998 11.1926 12.0887 11.3816L21.9998 21.2927L31.9109 11.3816C32.0999 11.1926 32.4113 11.1978 32.6066 11.393C32.8019 11.5883 32.807 11.8998 32.618 12.0887L22.7069 21.9998L32.6176 31.9105Z" fill="black"/>
</svg>
