<svg width="56" height="56" viewBox="0 0 56 56" fill="none" xmlns="http://www.w3.org/2000/svg">
<path d="M56 28C56 43.464 43.464 56 28 56C12.536 56 0 43.464 0 28C0 12.536 12.536 0 28 0C43.464 0 56 12.536 56 28Z" fill="#F9ECD3"/>
<path d="M32 26C32 26.7911 31.7654 27.5645 31.3259 28.2223C30.8864 28.8801 30.2616 29.3928 29.5307 29.6955C28.7998 29.9983 27.9956 30.0775 27.2196 29.9231C26.4437 29.7688 25.731 29.3878 25.1716 28.8284C24.6122 28.269 24.2312 27.5563 24.0769 26.7804C23.9225 26.0044 24.0017 25.2002 24.3045 24.4693C24.6072 23.7384 25.1199 23.1136 25.7777 22.6741C26.4355 22.2346 27.2089 22 28 22C29.0609 22 30.0783 22.4214 30.8284 23.1716C31.5786 23.9217 32 24.9391 32 26Z" fill="black" fill-opacity="0.2"/>
<path d="M40 18V21.5C40 21.7652 39.8946 22.0196 39.7071 22.2071C39.5196 22.3946 39.2652 22.5 39 22.5C38.7348 22.5 38.4804 22.3946 38.2929 22.2071C38.1054 22.0196 38 21.7652 38 21.5V18H34.5C34.2348 18 33.9804 17.8946 33.7929 17.7071C33.6054 17.5196 33.5 17.2652 33.5 17C33.5 16.7348 33.6054 16.4804 33.7929 16.2929C33.9804 16.1054 34.2348 16 34.5 16H38C38.5304 16 39.0391 16.2107 39.4142 16.5858C39.7893 16.9609 40 17.4696 40 18ZM39 33.5C38.7348 33.5 38.4804 33.6054 38.2929 33.7929C38.1054 33.9804 38 34.2348 38 34.5V38H34.5C34.2348 38 33.9804 38.1054 33.7929 38.2929C33.6054 38.4804 33.5 38.7348 33.5 39C33.5 39.2652 33.6054 39.5196 33.7929 39.7071C33.9804 39.8946 34.2348 40 34.5 40H38C38.5304 40 39.0391 39.7893 39.4142 39.4142C39.7893 39.0391 40 38.5304 40 38V34.5C40 34.2348 39.8946 33.9804 39.7071 33.7929C39.5196 33.6054 39.2652 33.5 39 33.5ZM21.5 38H18V34.5C18 34.2348 17.8946 33.9804 17.7071 33.7929C17.5196 33.6054 17.2652 33.5 17 33.5C16.7348 33.5 16.4804 33.6054 16.2929 33.7929C16.1054 33.9804 16 34.2348 16 34.5V38C16 38.5304 16.2107 39.0391 16.5858 39.4142C16.9609 39.7893 17.4696 40 18 40H21.5C21.7652 40 22.0196 39.8946 22.2071 39.7071C22.3946 39.5196 22.5 39.2652 22.5 39C22.5 38.7348 22.3946 38.4804 22.2071 38.2929C22.0196 38.1054 21.7652 38 21.5 38ZM17 22.5C17.2652 22.5 17.5196 22.3946 17.7071 22.2071C17.8946 22.0196 18 21.7652 18 21.5V18H21.5C21.7652 18 22.0196 17.8946 22.2071 17.7071C22.3946 17.5196 22.5 17.2652 22.5 17C22.5 16.7348 22.3946 16.4804 22.2071 16.2929C22.0196 16.1054 21.7652 16 21.5 16H18C17.4696 16 16.9609 16.2107 16.5858 16.5858C16.2107 16.9609 16 17.4696 16 18V21.5C16 21.7652 16.1054 22.0196 16.2929 22.2071C16.4804 22.3946 16.7348 22.5 17 22.5ZM34 34C33.8447 34.0003 33.6914 33.9645 33.5523 33.8953C33.4132 33.826 33.2922 33.7254 33.1987 33.6012C32.5933 32.794 31.8082 32.1388 30.9056 31.6875C30.0031 31.2362 29.0078 31.0012 27.9987 31.0012C26.9897 31.0012 25.9944 31.2362 25.0919 31.6875C24.1893 32.1388 23.4042 32.794 22.7987 33.6012C22.6393 33.8134 22.4021 33.9536 22.1393 33.9908C21.8765 34.0281 21.6097 33.9595 21.3975 33.8C21.1853 33.6405 21.0452 33.4033 21.0079 33.1405C20.9706 32.8778 21.0393 32.6109 21.1987 32.3988C22.085 31.2121 23.2661 30.2779 24.625 29.6887C23.8804 29.0089 23.3587 28.1199 23.1284 27.1382C22.8981 26.1566 22.97 25.1283 23.3346 24.1883C23.6992 23.2482 24.3394 22.4404 25.1713 21.8707C26.0033 21.3011 26.988 20.9962 27.9963 20.9962C29.0045 20.9962 29.9892 21.3011 30.8212 21.8707C31.6531 22.4404 32.2934 23.2482 32.6579 24.1883C33.0225 25.1283 33.0944 26.1566 32.8641 27.1382C32.6338 28.1199 32.1121 29.0089 31.3675 29.6887C32.7273 30.2775 33.9093 31.2118 34.7962 32.3988C34.9078 32.5471 34.976 32.7235 34.993 32.9083C35.01 33.0932 34.9752 33.2791 34.8926 33.4453C34.81 33.6115 34.6827 33.7514 34.525 33.8493C34.3674 33.9473 34.1856 33.9995 34 34ZM28 29C28.5933 29 29.1734 28.8241 29.6667 28.4944C30.1601 28.1648 30.5446 27.6962 30.7716 27.1481C30.9987 26.5999 31.0581 25.9967 30.9424 25.4147C30.8266 24.8328 30.5409 24.2982 30.1213 23.8787C29.7018 23.4591 29.1672 23.1734 28.5853 23.0576C28.0033 22.9419 27.4001 23.0013 26.8519 23.2284C26.3038 23.4554 25.8352 23.8399 25.5056 24.3333C25.1759 24.8266 25 25.4067 25 26C25 26.7957 25.3161 27.5587 25.8787 28.1213C26.4413 28.6839 27.2043 29 28 29Z" fill="black"/>
</svg>
