<svg width="56" height="56" viewBox="0 0 56 56" fill="none" xmlns="http://www.w3.org/2000/svg">
<path d="M56 28C56 43.464 43.464 56 28 56C12.536 56 0 43.464 0 28C0 12.536 12.536 0 28 0C43.464 0 56 12.536 56 28Z" fill="#F9ECD3"/>
<path d="M39.55 20.6499V38.4999C39.55 38.7783 39.4394 39.0454 39.2425 39.2423C39.0455 39.4392 38.7785 39.5499 38.5 39.5499H17.5C17.2215 39.5499 16.9545 39.4392 16.7575 39.2423C16.5606 39.0454 16.45 38.7783 16.45 38.4999V20.6499H39.55Z" fill="black" fill-opacity="0.2"/>
<path d="M40.4897 20.18L38.3897 15.98C38.3025 15.8056 38.1683 15.6589 38.0023 15.5564C37.8363 15.4539 37.6451 15.3997 37.45 15.3999H18.55C18.3549 15.3997 18.1637 15.4539 17.9977 15.5564C17.8317 15.6589 17.6975 15.8056 17.6102 15.98L15.5102 20.18C15.4379 20.3261 15.4001 20.4869 15.4 20.6499V38.4999C15.4 39.0568 15.6212 39.591 16.0151 39.9848C16.4089 40.3786 16.943 40.5999 17.5 40.5999H38.5C39.057 40.5999 39.5911 40.3786 39.9849 39.9848C40.3787 39.591 40.6 39.0568 40.6 38.4999V20.6499C40.5999 20.4869 40.5621 20.3261 40.4897 20.18ZM19.1984 17.4999H36.8016L37.8516 19.5999H18.1484L19.1984 17.4999ZM38.5 38.4999H17.5V21.6999H38.5V38.4999ZM32.9429 30.407C33.0405 30.5045 33.1179 30.6203 33.1708 30.7478C33.2236 30.8753 33.2508 31.0119 33.2508 31.1499C33.2508 31.2879 33.2236 31.4245 33.1708 31.552C33.1179 31.6794 33.0405 31.7952 32.9429 31.8927L28.7429 36.0927C28.6454 36.1904 28.5296 36.2678 28.4021 36.3207C28.2746 36.3735 28.138 36.4007 28 36.4007C27.862 36.4007 27.7254 36.3735 27.5979 36.3207C27.4704 36.2678 27.3546 36.1904 27.2571 36.0927L23.0571 31.8927C22.8601 31.6957 22.7494 31.4285 22.7494 31.1499C22.7494 30.8712 22.8601 30.604 23.0571 30.407C23.2541 30.21 23.5214 30.0993 23.8 30.0993C24.0786 30.0993 24.3459 30.21 24.5429 30.407L26.95 32.8154V24.8499C26.95 24.5714 27.0606 24.3043 27.2575 24.1074C27.4545 23.9105 27.7215 23.7999 28 23.7999C28.2785 23.7999 28.5455 23.9105 28.7425 24.1074C28.9394 24.3043 29.05 24.5714 29.05 24.8499V32.8154L31.4571 30.407C31.5546 30.3094 31.6704 30.2319 31.7979 30.1791C31.9254 30.1262 32.062 30.099 32.2 30.099C32.338 30.099 32.4746 30.1262 32.6021 30.1791C32.7296 30.2319 32.8454 30.3094 32.9429 30.407Z" fill="black"/>
</svg>
