<svg width="56" height="56" viewBox="0 0 56 56" fill="none" xmlns="http://www.w3.org/2000/svg">
<path d="M56 28C56 43.464 43.464 56 28 56C12.536 56 0 43.464 0 28C0 12.536 12.536 0 28 0C43.464 0 56 12.536 56 28Z" fill="#F9ECD3"/>
<path d="M39 24V38C39 38.2652 38.8946 38.5196 38.7071 38.7071C38.5196 38.8946 38.2652 39 38 39H18C17.7348 39 17.4804 38.8946 17.2929 38.7071C17.1054 38.5196 17 38.2652 17 38V24C17 23.7348 17.1054 23.4804 17.2929 23.2929C17.4804 23.1054 17.7348 23 18 23H38C38.2652 23 38.5196 23.1054 38.7071 23.2929C38.8946 23.4804 39 23.7348 39 24Z" fill="black" fill-opacity="0.2"/>
<path d="M38 22H34V19C34 17.4087 33.3679 15.8826 32.2426 14.7574C31.1174 13.6321 29.5913 13 28 13C26.4087 13 24.8826 13.6321 23.7574 14.7574C22.6321 15.8826 22 17.4087 22 19V22H18C17.4696 22 16.9609 22.2107 16.5858 22.5858C16.2107 22.9609 16 23.4696 16 24V38C16 38.5304 16.2107 39.0391 16.5858 39.4142C16.9609 39.7893 17.4696 40 18 40H38C38.5304 40 39.0391 39.7893 39.4142 39.4142C39.7893 39.0391 40 38.5304 40 38V24C40 23.4696 39.7893 22.9609 39.4142 22.5858C39.0391 22.2107 38.5304 22 38 22ZM18 28H38V30H18V28ZM18 32H38V34H18V32ZM24 19C24 17.9391 24.4214 16.9217 25.1716 16.1716C25.9217 15.4214 26.9391 15 28 15C29.0609 15 30.0783 15.4214 30.8284 16.1716C31.5786 16.9217 32 17.9391 32 19V22H24V19ZM38 24V26H18V24H38ZM38 38H18V36H38V38Z" fill="black"/>
</svg>
