<svg width="56" height="56" viewBox="0 0 56 56" fill="none" xmlns="http://www.w3.org/2000/svg">
<path d="M56 28C56 43.464 43.464 56 28 56C12.536 56 0 43.464 0 28C0 12.536 12.536 0 28 0C43.464 0 56 12.536 56 28Z" fill="#F9ECD3"/>
<path d="M40 28C40.0018 29.6829 39.6487 31.3473 38.9638 32.8845C38.2788 34.4217 37.2775 35.7972 36.025 36.9212C35.272 35.4401 34.1237 34.1964 32.7072 33.3277C31.2908 32.4591 29.6616 31.9996 28 32C28.9889 32 29.9556 31.7068 30.7779 31.1573C31.6001 30.6079 32.241 29.827 32.6194 28.9134C32.9978 27.9998 33.0969 26.9945 32.9039 26.0245C32.711 25.0546 32.2348 24.1637 31.5355 23.4645C30.8363 22.7652 29.9454 22.289 28.9755 22.0961C28.0055 21.9031 27.0002 22.0022 26.0866 22.3806C25.173 22.759 24.3921 23.3999 23.8427 24.2221C23.2932 25.0444 23 26.0111 23 27C23 28.3261 23.5268 29.5979 24.4645 30.5355C25.4021 31.4732 26.6739 32 28 32C26.3384 31.9996 24.7092 32.4591 23.2928 33.3277C21.8763 34.1964 20.728 35.4401 19.975 36.9212C18.4878 35.5836 17.3586 33.8953 16.6901 32.0101C16.0215 30.1248 15.8349 28.1024 16.147 26.1266C16.4592 24.1508 17.2603 22.2844 18.4776 20.6971C19.6948 19.1098 21.2895 17.852 23.1166 17.038C24.9438 16.224 26.9454 15.8796 28.9396 16.0362C30.9337 16.1929 32.8571 16.8455 34.5348 17.9348C36.2124 19.024 37.5912 20.5154 38.5457 22.2733C39.5002 24.0311 40.0001 25.9997 40 28Z" fill="black" fill-opacity="0.2"/>
<path d="M33 19C33 18.7348 33.1054 18.4804 33.2929 18.2929C33.4804 18.1054 33.7348 18 34 18H36V16C36 15.7348 36.1054 15.4804 36.2929 15.2929C36.4804 15.1054 36.7348 15 37 15C37.2652 15 37.5196 15.1054 37.7071 15.2929C37.8946 15.4804 38 15.7348 38 16V18H40C40.2652 18 40.5196 18.1054 40.7071 18.2929C40.8946 18.4804 41 18.7348 41 19C41 19.2652 40.8946 19.5196 40.7071 19.7071C40.5196 19.8946 40.2652 20 40 20H38V22C38 22.2652 37.8946 22.5196 37.7071 22.7071C37.5196 22.8946 37.2652 23 37 23C36.7348 23 36.4804 22.8946 36.2929 22.7071C36.1054 22.5196 36 22.2652 36 22V20H34C33.7348 20 33.4804 19.8946 33.2929 19.7071C33.1054 19.5196 33 19.2652 33 19ZM40.82 25.835C41.2769 28.5507 40.8588 31.3413 39.6263 33.804C38.3937 36.2666 36.4104 38.2738 33.9628 39.5358C31.5151 40.7977 28.7297 41.2492 26.0087 40.8249C23.2877 40.4006 20.772 39.1226 18.8247 37.1753C16.8774 35.228 15.5994 32.7123 15.1751 29.9913C14.7508 27.2703 15.2023 24.4849 16.4642 22.0372C17.7262 19.5896 19.7334 17.6063 22.196 16.3737C24.6587 15.1412 27.4493 14.7231 30.165 15.18C30.4246 15.2259 30.6555 15.3725 30.8076 15.5878C30.9597 15.8031 31.0206 16.0697 30.9771 16.3297C30.9337 16.5897 30.7893 16.822 30.5754 16.9761C30.3615 17.1302 30.0954 17.1936 29.835 17.1525C28.2577 16.8872 26.6415 16.9687 25.0988 17.3915C23.5562 17.8143 22.1243 18.5682 20.9027 19.6006C19.681 20.6331 18.699 21.9194 18.025 23.3699C17.3511 24.8205 17.0013 26.4005 17 28C16.9976 30.6927 17.9873 33.292 19.78 35.3013C20.8953 33.6851 22.4635 32.4348 24.2875 31.7075C23.3077 30.9358 22.5928 29.878 22.2421 28.6811C21.8914 27.4843 21.9224 26.2079 22.3307 25.0294C22.7391 23.851 23.5045 22.8291 24.5206 22.1059C25.5366 21.3826 26.7528 20.994 28 20.994C29.2472 20.994 30.4634 21.3826 31.4794 22.1059C32.4955 22.8291 33.2609 23.851 33.6693 25.0294C34.0776 26.2079 34.1086 27.4843 33.7579 28.6811C33.4072 29.878 32.6923 30.9358 31.7125 31.7075C33.5365 32.4348 35.1047 33.6851 36.22 35.3013C38.0127 33.292 39.0024 30.6927 39 28C39 27.3852 38.949 26.7714 38.8475 26.165C38.8245 26.0349 38.8275 25.9016 38.8563 25.7726C38.8851 25.6437 38.9392 25.5218 39.0154 25.4139C39.0917 25.306 39.1885 25.2143 39.3004 25.144C39.4122 25.0738 39.5369 25.0264 39.6672 25.0046C39.7975 24.9828 39.9308 24.987 40.0595 25.017C40.1881 25.047 40.3095 25.1023 40.4167 25.1795C40.5239 25.2567 40.6147 25.3544 40.684 25.4669C40.7532 25.5794 40.7994 25.7045 40.82 25.835ZM28 31C28.7911 31 29.5645 30.7654 30.2223 30.3259C30.8801 29.8864 31.3928 29.2616 31.6955 28.5307C31.9983 27.7998 32.0775 26.9956 31.9231 26.2196C31.7688 25.4437 31.3878 24.731 30.8284 24.1716C30.269 23.6122 29.5563 23.2312 28.7804 23.0769C28.0044 22.9225 27.2002 23.0017 26.4693 23.3045C25.7384 23.6072 25.1136 24.1199 24.6741 24.7777C24.2346 25.4355 24 26.2089 24 27C24 28.0609 24.4214 29.0783 25.1716 29.8284C25.9217 30.5786 26.9391 31 28 31ZM28 39C30.4417 39.0025 32.8141 38.1885 34.74 36.6875C34.0166 35.5561 33.02 34.625 31.8421 33.9801C30.6642 33.3351 29.3429 32.9971 28 32.9971C26.6571 32.9971 25.3358 33.3351 24.1579 33.9801C22.98 34.625 21.9834 35.5561 21.26 36.6875C23.1859 38.1885 25.5583 39.0025 28 39Z" fill="black"/>
</svg>
