<svg width="56" height="56" viewBox="0 0 56 56" fill="none" xmlns="http://www.w3.org/2000/svg">
<path d="M56 28C56 43.464 43.464 56 28 56C12.536 56 0 43.464 0 28C0 12.536 12.536 0 28 0C43.464 0 56 12.536 56 28Z" fill="#F9ECD3"/>
<path d="M39 18V23H17V18C17 17.7348 17.1054 17.4804 17.2929 17.2929C17.4804 17.1054 17.7348 17 18 17H38C38.2652 17 38.5196 17.1054 38.7071 17.2929C38.8946 17.4804 39 17.7348 39 18Z" fill="black" fill-opacity="0.2"/>
<path d="M38 16H35V15C35 14.7348 34.8946 14.4804 34.7071 14.2929C34.5196 14.1054 34.2652 14 34 14C33.7348 14 33.4804 14.1054 33.2929 14.2929C33.1054 14.4804 33 14.7348 33 15V16H23V15C23 14.7348 22.8946 14.4804 22.7071 14.2929C22.5196 14.1054 22.2652 14 22 14C21.7348 14 21.4804 14.1054 21.2929 14.2929C21.1054 14.4804 21 14.7348 21 15V16H18C17.4696 16 16.9609 16.2107 16.5858 16.5858C16.2107 16.9609 16 17.4696 16 18V38C16 38.5304 16.2107 39.0391 16.5858 39.4142C16.9609 39.7893 17.4696 40 18 40H38C38.5304 40 39.0391 39.7893 39.4142 39.4142C39.7893 39.0391 40 38.5304 40 38V18C40 17.4696 39.7893 16.9609 39.4142 16.5858C39.0391 16.2107 38.5304 16 38 16ZM21 18V19C21 19.2652 21.1054 19.5196 21.2929 19.7071C21.4804 19.8946 21.7348 20 22 20C22.2652 20 22.5196 19.8946 22.7071 19.7071C22.8946 19.5196 23 19.2652 23 19V18H33V19C33 19.2652 33.1054 19.5196 33.2929 19.7071C33.4804 19.8946 33.7348 20 34 20C34.2652 20 34.5196 19.8946 34.7071 19.7071C34.8946 19.5196 35 19.2652 35 19V18H38V22H18V18H21ZM38 38H18V24H38V38ZM33.2075 27.2925C33.3005 27.3854 33.3742 27.4957 33.4246 27.6171C33.4749 27.7385 33.5008 27.8686 33.5008 28C33.5008 28.1314 33.4749 28.2615 33.4246 28.3829C33.3742 28.5043 33.3005 28.6146 33.2075 28.7075L27.2075 34.7075C27.1146 34.8005 27.0043 34.8742 26.8829 34.9246C26.7615 34.9749 26.6314 35.0008 26.5 35.0008C26.3686 35.0008 26.2385 34.9749 26.1171 34.9246C25.9957 34.8742 25.8854 34.8005 25.7925 34.7075L22.7925 31.7075C22.6049 31.5199 22.4994 31.2654 22.4994 31C22.4994 30.7346 22.6049 30.4801 22.7925 30.2925C22.9801 30.1049 23.2346 29.9994 23.5 29.9994C23.7654 29.9994 24.0199 30.1049 24.2075 30.2925L26.5 32.5863L31.7925 27.2925C31.8854 27.1995 31.9957 27.1258 32.1171 27.0754C32.2385 27.0251 32.3686 26.9992 32.5 26.9992C32.6314 26.9992 32.7615 27.0251 32.8829 27.0754C33.0043 27.1258 33.1146 27.1995 33.2075 27.2925Z" fill="black"/>
</svg>
