<svg width="165" height="24" viewBox="0 0 165 24" fill="none" xmlns="http://www.w3.org/2000/svg">
<path d="M135.517 5.75616H143.128V10.1852L142.552 10.9847C142.638 9.98268 142.952 9.04464 143.496 8.17055C144.039 7.28581 144.775 6.57695 145.702 6.04397C146.629 5.51099 147.685 5.2445 148.868 5.2445C149.902 5.2445 150.792 5.44171 151.538 5.83611C152.284 6.23051 152.875 6.82212 153.312 7.61093C153.75 8.39973 154.016 9.38574 154.112 10.569L153.312 11.1765C153.366 10.1532 153.654 9.18854 154.176 8.28248C154.709 7.37642 155.444 6.64624 156.382 6.09194C157.32 5.52698 158.402 5.2445 159.628 5.2445C160.79 5.2445 161.765 5.48434 162.554 5.96402C163.353 6.4437 163.961 7.16855 164.376 8.13857C164.792 9.09793 165 10.3025 165 11.7522V23.4404H157.15V12.5996C157.15 12.0133 157.022 11.5869 156.766 11.3205C156.521 11.0433 156.19 10.9047 155.775 10.9047C155.487 10.9047 155.22 10.974 154.975 11.1126C154.741 11.2405 154.549 11.4537 154.4 11.7522C154.25 12.0506 154.176 12.4344 154.176 12.9034V23.4404H146.326V12.5996C146.326 12.0133 146.198 11.5869 145.942 11.3205C145.697 11.0433 145.366 10.9047 144.951 10.9047C144.663 10.9047 144.396 10.974 144.151 11.1126C143.917 11.2405 143.725 11.4537 143.576 11.7522C143.426 12.0506 143.352 12.4344 143.352 12.9034V23.4404H135.517V5.75616Z" fill="black"/>
<path d="M119.641 23.952C118.5 23.952 117.493 23.7495 116.619 23.3444C115.745 22.9287 115.058 22.2998 114.557 21.4577C114.066 20.6049 113.821 19.5496 113.821 18.2918C113.821 17.066 114.061 16.064 114.541 15.2858C115.031 14.5077 115.788 13.9001 116.811 13.463C117.845 13.0153 119.215 12.6955 120.92 12.5037L125.221 12.008V11.0966C125.221 10.7448 125.173 10.457 125.077 10.2332C124.981 10.0093 124.837 9.8441 124.645 9.73751C124.464 9.62025 124.224 9.56163 123.926 9.56163C123.436 9.56163 123.068 9.71619 122.823 10.0253C122.588 10.3344 122.471 10.7981 122.471 11.4164H114.429C114.493 10.0626 114.935 8.92738 115.756 8.01066C116.587 7.08328 117.706 6.39041 119.113 5.93205C120.531 5.47368 122.156 5.2445 123.99 5.2445C125.834 5.2445 127.438 5.495 128.802 5.996C130.177 6.48634 131.243 7.22718 132 8.21852C132.757 9.20986 133.135 10.4304 133.135 11.8801V19.2831C133.135 19.976 133.178 20.6209 133.263 21.2179C133.348 21.8148 133.487 22.4917 133.679 23.2485C133.7 23.3125 133.716 23.3764 133.727 23.4404H125.828C125.733 22.9927 125.653 22.5663 125.589 22.1612C125.525 21.7562 125.477 21.3404 125.445 20.9141C124.805 21.8734 123.99 22.6196 122.999 23.1526C122.007 23.6855 120.888 23.952 119.641 23.952ZM123.638 19.1233C124.054 19.1233 124.416 18.9953 124.725 18.7395C125.034 18.473 125.2 18.0839 125.221 17.5723V14.8701L124.198 15.1579C123.633 15.3178 123.185 15.4937 122.855 15.6855C122.535 15.8668 122.3 16.0906 122.151 16.3571C122.013 16.6129 121.943 16.9434 121.943 17.3484C121.943 17.7535 122.018 18.0893 122.167 18.3558C122.316 18.6116 122.519 18.8035 122.775 18.9314C123.031 19.0593 123.318 19.1233 123.638 19.1233Z" fill="black"/>
<path d="M102.326 23.952C100.247 23.952 98.4297 23.6003 96.8736 22.8967C95.3174 22.1825 94.1076 21.1272 93.2442 19.7308C92.3808 18.3238 91.9491 16.6129 91.9491 14.5983C91.9491 12.6369 92.3808 10.9527 93.2442 9.54564C94.1076 8.13857 95.3174 7.07262 96.8736 6.34777C98.4297 5.61226 100.231 5.2445 102.278 5.2445C104.399 5.2445 106.227 5.60693 107.762 6.33178C109.307 7.04597 110.49 8.10127 111.311 9.49767C112.142 10.8834 112.558 12.5623 112.558 14.5343V16.0533H97.8808V12.4077H106.131L104.388 13.511V12.4237C104.388 11.8481 104.308 11.3578 104.148 10.9527C103.999 10.5476 103.765 10.2385 103.445 10.0253C103.136 9.80147 102.752 9.68954 102.294 9.68954C101.547 9.68954 100.983 9.96669 100.599 10.521C100.226 11.0646 100.039 11.8588 100.039 12.9034V15.9094C100.039 16.6129 100.103 17.2205 100.231 17.7322C100.37 18.2332 100.604 18.6382 100.935 18.9474C101.276 19.2458 101.739 19.3951 102.326 19.3951C102.954 19.3951 103.439 19.2192 103.781 18.8674C104.132 18.505 104.335 17.9827 104.388 17.3005C104.388 17.2898 104.388 17.2845 104.388 17.2845C104.388 17.2738 104.388 17.2632 104.388 17.2525H112.494C112.334 18.6276 111.812 19.8215 110.927 20.8341C110.053 21.8361 108.875 22.6089 107.394 23.1526C105.923 23.6855 104.234 23.952 102.326 23.952Z" fill="black"/>
<path d="M86.3692 23.7282C85.0795 23.7282 83.939 23.547 82.9477 23.1845C81.9564 22.8221 81.1676 22.2252 80.5814 21.3937C79.9952 20.5516 79.702 19.4537 79.702 18.0999V10.553H76.9201V5.75616H79.702V2.51033L87.6163 0.255829V5.75616H91.0218V10.553H87.6163V17.2685C87.6163 17.8548 87.7602 18.2705 88.048 18.5157C88.3464 18.7502 88.7674 18.8674 89.3111 18.8674C89.6095 18.8674 89.9026 18.8408 90.1904 18.7875C90.4782 18.7342 90.7553 18.6649 91.0218 18.5796V22.7848C90.4462 23.0726 89.7694 23.3018 88.9913 23.4724C88.2132 23.6429 87.3391 23.7282 86.3692 23.7282Z" fill="black"/>
<path d="M65.9041 23.952C63.9109 23.952 62.1148 23.6056 60.516 22.9127C58.9278 22.2199 57.6647 21.1699 56.7267 19.7628C55.7994 18.3558 55.3358 16.6236 55.3358 14.5663C55.3358 12.5516 55.8047 10.8461 56.7427 9.4497C57.6807 8.04264 58.9491 6.99267 60.548 6.2998C62.1468 5.59627 63.9322 5.2445 65.9041 5.2445C67.876 5.2445 69.6613 5.59094 71.2602 6.28381C72.859 6.97668 74.1274 8.02665 75.0654 9.43371C76.0034 10.8301 76.4724 12.541 76.4724 14.5663C76.4724 16.6236 76.0087 18.3558 75.0814 19.7628C74.1541 21.1699 72.891 22.2199 71.2922 22.9127C69.704 23.6056 67.9079 23.952 65.9041 23.952ZM65.9041 19.3151C66.4264 19.3151 66.8527 19.1552 67.1831 18.8354C67.5136 18.505 67.7587 17.9933 67.9186 17.3005C68.0785 16.5969 68.1584 15.6855 68.1584 14.5663C68.1584 13.4577 68.0785 12.5623 67.9186 11.8801C67.7587 11.1872 67.5136 10.6809 67.1831 10.3611C66.8527 10.0413 66.4264 9.88141 65.9041 9.88141C65.3818 9.88141 64.9554 10.0413 64.625 10.3611C64.2946 10.6809 64.0494 11.1872 63.8895 11.8801C63.7296 12.5623 63.6497 13.4577 63.6497 14.5663C63.6497 15.6855 63.7296 16.5969 63.8895 17.3005C64.0494 17.9933 64.2946 18.505 64.625 18.8354C64.9554 19.1552 65.3818 19.3151 65.9041 19.3151Z" fill="black"/>
<path d="M45.5988 0.511659H53.5131V23.4404H45.5988V0.511659Z" fill="black"/>
<path d="M33.2238 23.952C31.2306 23.952 29.4346 23.6056 27.8358 22.9127C26.2476 22.2199 24.9845 21.1699 24.0465 19.7628C23.1192 18.3558 22.6555 16.6236 22.6555 14.5663C22.6555 12.5516 23.1245 10.8461 24.0625 9.4497C25.0005 8.04264 26.2689 6.99267 27.8677 6.2998C29.4666 5.59627 31.2519 5.2445 33.2238 5.2445C35.1957 5.2445 36.9811 5.59094 38.5799 6.28381C40.1788 6.97668 41.4472 8.02665 42.3852 9.43371C43.3232 10.8301 43.7922 12.541 43.7922 14.5663C43.7922 16.6236 43.3285 18.3558 42.4012 19.7628C41.4738 21.1699 40.2108 22.2199 38.6119 22.9127C37.0237 23.6056 35.2277 23.952 33.2238 23.952ZM33.2238 19.3151C33.7461 19.3151 34.1725 19.1552 34.5029 18.8354C34.8333 18.505 35.0785 17.9933 35.2384 17.3005C35.3983 16.5969 35.4782 15.6855 35.4782 14.5663C35.4782 13.4577 35.3983 12.5623 35.2384 11.8801C35.0785 11.1872 34.8333 10.6809 34.5029 10.3611C34.1725 10.0413 33.7461 9.88141 33.2238 9.88141C32.7016 9.88141 32.2752 10.0413 31.9448 10.3611C31.6143 10.6809 31.3692 11.1872 31.2093 11.8801C31.0494 12.5623 30.9695 13.4577 30.9695 14.5663C30.9695 15.6855 31.0494 16.5969 31.2093 17.3005C31.3692 17.9933 31.6143 18.505 31.9448 18.8354C32.2752 19.1552 32.7016 19.3151 33.2238 19.3151Z" fill="black"/>
<path d="M10.8401 24C8.6657 24 6.76841 23.7495 5.14826 23.2485C3.5281 22.7475 2.26502 21.964 1.35901 20.8981C0.453004 19.8215 0 18.4624 0 16.8208H8.64971C8.64971 17.6096 8.84157 18.2065 9.22529 18.6116C9.61967 19.006 10.1579 19.2032 10.8401 19.2032C11.405 19.2032 11.8527 19.0753 12.1831 18.8195C12.5136 18.553 12.6788 18.1639 12.6788 17.6522C12.6788 17.3111 12.6042 17.018 12.4549 16.7728C12.3057 16.5276 12.0819 16.3145 11.7834 16.1332C11.485 15.9414 11.0906 15.7495 10.6003 15.5576C10.5044 15.5257 10.4351 15.5043 10.3924 15.4937C10.3498 15.4724 10.2805 15.4457 10.1846 15.4137L7.0189 14.3105C5.54797 13.7988 4.33285 13.2658 3.37355 12.7115C2.41424 12.1466 1.6468 11.4324 1.07122 10.569C0.506299 9.70553 0.223837 8.63424 0.223837 7.3551C0.223837 5.67089 0.6875 4.27981 1.61483 3.18188C2.55281 2.08394 3.81589 1.27915 5.40407 0.767488C7.00291 0.255829 8.81492 0 10.8401 0C12.6308 0 14.2989 0.23984 15.8445 0.71952C17.39 1.1992 18.6478 1.96136 19.6177 3.006C20.5877 4.05063 21.0727 5.37242 21.0727 6.97135H12.6788C12.6681 6.23584 12.4816 5.68688 12.1192 5.32445C11.7674 4.95137 11.2825 4.76482 10.6642 4.76482C10.11 4.76482 9.66231 4.9034 9.32122 5.18055C8.98014 5.44704 8.80959 5.80413 8.80959 6.25183V6.34777C8.83091 6.66756 8.9375 6.93937 9.12936 7.16322C9.33188 7.37642 9.5877 7.55763 9.8968 7.70686C10.2166 7.8561 10.6696 8.03731 11.2558 8.2505L14.2137 9.32179C14.2563 9.33245 14.2989 9.34844 14.3416 9.36975C15.9084 9.94537 17.1982 10.5316 18.2108 11.1286C19.234 11.7149 20.0441 12.4717 20.641 13.3991C21.2485 14.3158 21.5523 15.4564 21.5523 16.8208C21.5523 18.4943 21.0887 19.8641 20.1613 20.93C19.2447 21.996 17.9869 22.7742 16.3881 23.2645C14.7892 23.7548 12.9399 24 10.8401 24Z" fill="black"/>
</svg>
