<svg width="32" height="32" viewBox="0 0 32 32" fill="none" xmlns="http://www.w3.org/2000/svg">
<path d="M32 16C32 24.8366 24.8366 32 16 32C7.16344 32 0 24.8366 0 16C0 7.16344 7.16344 0 16 0C24.8366 0 32 7.16344 32 16Z" fill="#FAFB85"/>
<path d="M9.54053 15.7354V9.21094H15.3179V16.1587C15.3179 18.3501 14.77 20.1016 13.6743 21.4131C12.5952 22.708 10.877 23.3555 8.51953 23.3555V20.9897C9.84766 20.9897 10.8354 20.6162 11.4829 19.8691C12.1304 19.1055 12.4541 18.0513 12.4541 16.7065V15.7354H9.54053ZM18.3311 15.7354V9.21094H24.0835V16.1587C24.0835 18.3501 23.5356 20.1016 22.4399 21.4131C21.3608 22.708 19.6509 23.3555 17.3101 23.3555V20.9897C19.9165 20.9897 21.2197 19.562 21.2197 16.7065V15.7354H18.3311Z" fill="black" fill-opacity="0.3"/>
</svg>
