<svg width="0" height="0" class="hidden">
	<symbol fill="none" xmlns="http://www.w3.org/2000/svg" viewBox="0 0 56 56" id="advantage3">
		<path d="M56 28C56 43.464 43.464 56 28 56C12.536 56 0 43.464 0 28C0 12.536 12.536 0 28 0C43.464 0 56 12.536 56 28Z" fill="#F9ECD3"></path>
		<path d="M39 18V23H17V18C17 17.7348 17.1054 17.4804 17.2929 17.2929C17.4804 17.1054 17.7348 17 18 17H38C38.2652 17 38.5196 17.1054 38.7071 17.2929C38.8946 17.4804 39 17.7348 39 18Z" fill="black" fill-opacity="0.2"></path>
		<path d="M38 16H35V15C35 14.7348 34.8946 14.4804 34.7071 14.2929C34.5196 14.1054 34.2652 14 34 14C33.7348 14 33.4804 14.1054 33.2929 14.2929C33.1054 14.4804 33 14.7348 33 15V16H23V15C23 14.7348 22.8946 14.4804 22.7071 14.2929C22.5196 14.1054 22.2652 14 22 14C21.7348 14 21.4804 14.1054 21.2929 14.2929C21.1054 14.4804 21 14.7348 21 15V16H18C17.4696 16 16.9609 16.2107 16.5858 16.5858C16.2107 16.9609 16 17.4696 16 18V38C16 38.5304 16.2107 39.0391 16.5858 39.4142C16.9609 39.7893 17.4696 40 18 40H38C38.5304 40 39.0391 39.7893 39.4142 39.4142C39.7893 39.0391 40 38.5304 40 38V18C40 17.4696 39.7893 16.9609 39.4142 16.5858C39.0391 16.2107 38.5304 16 38 16ZM21 18V19C21 19.2652 21.1054 19.5196 21.2929 19.7071C21.4804 19.8946 21.7348 20 22 20C22.2652 20 22.5196 19.8946 22.7071 19.7071C22.8946 19.5196 23 19.2652 23 19V18H33V19C33 19.2652 33.1054 19.5196 33.2929 19.7071C33.4804 19.8946 33.7348 20 34 20C34.2652 20 34.5196 19.8946 34.7071 19.7071C34.8946 19.5196 35 19.2652 35 19V18H38V22H18V18H21ZM38 38H18V24H38V38ZM33.2075 27.2925C33.3005 27.3854 33.3742 27.4957 33.4246 27.6171C33.4749 27.7385 33.5008 27.8686 33.5008 28C33.5008 28.1314 33.4749 28.2615 33.4246 28.3829C33.3742 28.5043 33.3005 28.6146 33.2075 28.7075L27.2075 34.7075C27.1146 34.8005 27.0043 34.8742 26.8829 34.9246C26.7615 34.9749 26.6314 35.0008 26.5 35.0008C26.3686 35.0008 26.2385 34.9749 26.1171 34.9246C25.9957 34.8742 25.8854 34.8005 25.7925 34.7075L22.7925 31.7075C22.6049 31.5199 22.4994 31.2654 22.4994 31C22.4994 30.7346 22.6049 30.4801 22.7925 30.2925C22.9801 30.1049 23.2346 29.9994 23.5 29.9994C23.7654 29.9994 24.0199 30.1049 24.2075 30.2925L26.5 32.5863L31.7925 27.2925C31.8854 27.1995 31.9957 27.1258 32.1171 27.0754C32.2385 27.0251 32.3686 26.9992 32.5 26.9992C32.6314 26.9992 32.7615 27.0251 32.8829 27.0754C33.0043 27.1258 33.1146 27.1995 33.2075 27.2925Z" fill="black"></path>
	</symbol>
	<symbol fill="none" xmlns="http://www.w3.org/2000/svg" viewBox="0 0 56 56" id="advantage4">
		<path d="M56 28C56 43.464 43.464 56 28 56C12.536 56 0 43.464 0 28C0 12.536 12.536 0 28 0C43.464 0 56 12.536 56 28Z" fill="#F9ECD3"></path>
		<path d="M39 24V38C39 38.2652 38.8946 38.5196 38.7071 38.7071C38.5196 38.8946 38.2652 39 38 39H18C17.7348 39 17.4804 38.8946 17.2929 38.7071C17.1054 38.5196 17 38.2652 17 38V24C17 23.7348 17.1054 23.4804 17.2929 23.2929C17.4804 23.1054 17.7348 23 18 23H38C38.2652 23 38.5196 23.1054 38.7071 23.2929C38.8946 23.4804 39 23.7348 39 24Z" fill="black" fill-opacity="0.2"></path>
		<path d="M38 22H34V19C34 17.4087 33.3679 15.8826 32.2426 14.7574C31.1174 13.6321 29.5913 13 28 13C26.4087 13 24.8826 13.6321 23.7574 14.7574C22.6321 15.8826 22 17.4087 22 19V22H18C17.4696 22 16.9609 22.2107 16.5858 22.5858C16.2107 22.9609 16 23.4696 16 24V38C16 38.5304 16.2107 39.0391 16.5858 39.4142C16.9609 39.7893 17.4696 40 18 40H38C38.5304 40 39.0391 39.7893 39.4142 39.4142C39.7893 39.0391 40 38.5304 40 38V24C40 23.4696 39.7893 22.9609 39.4142 22.5858C39.0391 22.2107 38.5304 22 38 22ZM18 28H38V30H18V28ZM18 32H38V34H18V32ZM24 19C24 17.9391 24.4214 16.9217 25.1716 16.1716C25.9217 15.4214 26.9391 15 28 15C29.0609 15 30.0783 15.4214 30.8284 16.1716C31.5786 16.9217 32 17.9391 32 19V22H24V19ZM38 24V26H18V24H38ZM38 38H18V36H38V38Z" fill="black"></path>
	</symbol>
	<symbol fill="none" xmlns="http://www.w3.org/2000/svg" viewBox="0 0 56 56" id="advantage5">
		<path d="M56 28C56 43.464 43.464 56 28 56C12.536 56 0 43.464 0 28C0 12.536 12.536 0 28 0C43.464 0 56 12.536 56 28Z" fill="#F9ECD3"></path>
		<path d="M39.55 20.6499V38.4999C39.55 38.7783 39.4394 39.0454 39.2425 39.2423C39.0455 39.4392 38.7785 39.5499 38.5 39.5499H17.5C17.2215 39.5499 16.9545 39.4392 16.7575 39.2423C16.5606 39.0454 16.45 38.7783 16.45 38.4999V20.6499H39.55Z" fill="black" fill-opacity="0.2"></path>
		<path d="M40.4897 20.18L38.3897 15.98C38.3025 15.8056 38.1683 15.6589 38.0023 15.5564C37.8363 15.4539 37.6451 15.3997 37.45 15.3999H18.55C18.3549 15.3997 18.1637 15.4539 17.9977 15.5564C17.8317 15.6589 17.6975 15.8056 17.6102 15.98L15.5102 20.18C15.4379 20.3261 15.4001 20.4869 15.4 20.6499V38.4999C15.4 39.0568 15.6212 39.591 16.0151 39.9848C16.4089 40.3786 16.943 40.5999 17.5 40.5999H38.5C39.057 40.5999 39.5911 40.3786 39.9849 39.9848C40.3787 39.591 40.6 39.0568 40.6 38.4999V20.6499C40.5999 20.4869 40.5621 20.3261 40.4897 20.18ZM19.1984 17.4999H36.8016L37.8516 19.5999H18.1484L19.1984 17.4999ZM38.5 38.4999H17.5V21.6999H38.5V38.4999ZM32.9429 30.407C33.0405 30.5045 33.1179 30.6203 33.1708 30.7478C33.2236 30.8753 33.2508 31.0119 33.2508 31.1499C33.2508 31.2879 33.2236 31.4245 33.1708 31.552C33.1179 31.6794 33.0405 31.7952 32.9429 31.8927L28.7429 36.0927C28.6454 36.1904 28.5296 36.2678 28.4021 36.3207C28.2746 36.3735 28.138 36.4007 28 36.4007C27.862 36.4007 27.7254 36.3735 27.5979 36.3207C27.4704 36.2678 27.3546 36.1904 27.2571 36.0927L23.0571 31.8927C22.8601 31.6957 22.7494 31.4285 22.7494 31.1499C22.7494 30.8712 22.8601 30.604 23.0571 30.407C23.2541 30.21 23.5214 30.0993 23.8 30.0993C24.0786 30.0993 24.3459 30.21 24.5429 30.407L26.95 32.8154V24.8499C26.95 24.5714 27.0606 24.3043 27.2575 24.1074C27.4545 23.9105 27.7215 23.7999 28 23.7999C28.2785 23.7999 28.5455 23.9105 28.7425 24.1074C28.9394 24.3043 29.05 24.5714 29.05 24.8499V32.8154L31.4571 30.407C31.5546 30.3094 31.6704 30.2319 31.7979 30.1791C31.9254 30.1262 32.062 30.099 32.2 30.099C32.338 30.099 32.4746 30.1262 32.6021 30.1791C32.7296 30.2319 32.8454 30.3094 32.9429 30.407Z" fill="black"></path>
	</symbol>
	<symbol fill="none" xmlns="http://www.w3.org/2000/svg" viewBox="0 0 44 44" id="chevron">
		<rect width="44" height="44" rx="22" fill="white" fill-opacity="0.2"></rect>
		<path fill-rule="evenodd" clip-rule="evenodd" d="M19.4471 16.4932C19.727 16.1879 20.2015 16.1672 20.5068 16.4471L26.5068 21.9471C26.6618 22.0892 26.75 22.2898 26.75 22.5C26.75 22.7102 26.6618 22.9108 26.5068 23.0529L20.5068 28.5529C20.2015 28.8328 19.727 28.8121 19.4471 28.5068C19.1672 28.2015 19.1879 27.727 19.4932 27.4471L24.8901 22.5L19.4932 17.5529C19.1879 17.273 19.1672 16.7986 19.4471 16.4932Z" fill="white"></path>
	</symbol>
	<symbol fill="none" xmlns="http://www.w3.org/2000/svg" viewBox="0 0 56 56" id="list-icon1">
		<path d="M56 28C56 43.464 43.464 56 28 56C12.536 56 0 43.464 0 28C0 12.536 12.536 0 28 0C43.464 0 56 12.536 56 28Z" fill="#F9ECD3"></path>
		<path d="M39.55 20.6499V38.4999C39.55 38.7783 39.4394 39.0454 39.2425 39.2423C39.0455 39.4392 38.7785 39.5499 38.5 39.5499H17.5C17.2215 39.5499 16.9545 39.4392 16.7575 39.2423C16.5606 39.0454 16.45 38.7783 16.45 38.4999V20.6499H39.55Z" fill="black" fill-opacity="0.2"></path>
		<path d="M40.4897 20.18L38.3897 15.98C38.3025 15.8056 38.1683 15.6589 38.0023 15.5564C37.8363 15.4539 37.6451 15.3997 37.45 15.3999H18.55C18.3549 15.3997 18.1637 15.4539 17.9977 15.5564C17.8317 15.6589 17.6975 15.8056 17.6102 15.98L15.5102 20.18C15.4379 20.3261 15.4001 20.4869 15.4 20.6499V38.4999C15.4 39.0568 15.6212 39.591 16.0151 39.9848C16.4089 40.3786 16.943 40.5999 17.5 40.5999H38.5C39.057 40.5999 39.5911 40.3786 39.9849 39.9848C40.3787 39.591 40.6 39.0568 40.6 38.4999V20.6499C40.5999 20.4869 40.5621 20.3261 40.4897 20.18ZM19.1984 17.4999H36.8016L37.8516 19.5999H18.1484L19.1984 17.4999ZM38.5 38.4999H17.5V21.6999H38.5V38.4999ZM32.9429 30.407C33.0405 30.5045 33.1179 30.6203 33.1708 30.7478C33.2236 30.8753 33.2508 31.0119 33.2508 31.1499C33.2508 31.2879 33.2236 31.4245 33.1708 31.552C33.1179 31.6794 33.0405 31.7952 32.9429 31.8927L28.7429 36.0927C28.6454 36.1904 28.5296 36.2678 28.4021 36.3207C28.2746 36.3735 28.138 36.4007 28 36.4007C27.862 36.4007 27.7254 36.3735 27.5979 36.3207C27.4704 36.2678 27.3546 36.1904 27.2571 36.0927L23.0571 31.8927C22.8601 31.6957 22.7494 31.4285 22.7494 31.1499C22.7494 30.8712 22.8601 30.604 23.0571 30.407C23.2541 30.21 23.5214 30.0993 23.8 30.0993C24.0786 30.0993 24.3459 30.21 24.5429 30.407L26.95 32.8154V24.8499C26.95 24.5714 27.0606 24.3043 27.2575 24.1074C27.4545 23.9105 27.7215 23.7999 28 23.7999C28.2785 23.7999 28.5455 23.9105 28.7425 24.1074C28.9394 24.3043 29.05 24.5714 29.05 24.8499V32.8154L31.4571 30.407C31.5546 30.3094 31.6704 30.2319 31.7979 30.1791C31.9254 30.1262 32.062 30.099 32.2 30.099C32.338 30.099 32.4746 30.1262 32.6021 30.1791C32.7296 30.2319 32.8454 30.3094 32.9429 30.407Z" fill="black"></path>
	</symbol>
	<symbol fill="none" xmlns="http://www.w3.org/2000/svg" viewBox="0 0 56 56" id="list-icon2">
		<path d="M56 28C56 43.464 43.464 56 28 56C12.536 56 0 43.464 0 28C0 12.536 12.536 0 28 0C43.464 0 56 12.536 56 28Z" fill="#F9ECD3"></path>
		<path d="M40 28C40.0018 29.6829 39.6487 31.3473 38.9638 32.8845C38.2788 34.4217 37.2775 35.7972 36.025 36.9212C35.272 35.4401 34.1237 34.1964 32.7072 33.3277C31.2908 32.4591 29.6616 31.9996 28 32C28.9889 32 29.9556 31.7068 30.7779 31.1573C31.6001 30.6079 32.241 29.827 32.6194 28.9134C32.9978 27.9998 33.0969 26.9945 32.9039 26.0245C32.711 25.0546 32.2348 24.1637 31.5355 23.4645C30.8363 22.7652 29.9454 22.289 28.9755 22.0961C28.0055 21.9031 27.0002 22.0022 26.0866 22.3806C25.173 22.759 24.3921 23.3999 23.8427 24.2221C23.2932 25.0444 23 26.0111 23 27C23 28.3261 23.5268 29.5979 24.4645 30.5355C25.4021 31.4732 26.6739 32 28 32C26.3384 31.9996 24.7092 32.4591 23.2928 33.3277C21.8763 34.1964 20.728 35.4401 19.975 36.9212C18.4878 35.5836 17.3586 33.8953 16.6901 32.0101C16.0215 30.1248 15.8349 28.1024 16.147 26.1266C16.4592 24.1508 17.2603 22.2844 18.4776 20.6971C19.6948 19.1098 21.2895 17.852 23.1166 17.038C24.9438 16.224 26.9454 15.8796 28.9396 16.0362C30.9337 16.1929 32.8571 16.8455 34.5348 17.9348C36.2124 19.024 37.5912 20.5154 38.5457 22.2733C39.5002 24.0311 40.0001 25.9997 40 28Z" fill="black" fill-opacity="0.2"></path>
		<path d="M33 19C33 18.7348 33.1054 18.4804 33.2929 18.2929C33.4804 18.1054 33.7348 18 34 18H36V16C36 15.7348 36.1054 15.4804 36.2929 15.2929C36.4804 15.1054 36.7348 15 37 15C37.2652 15 37.5196 15.1054 37.7071 15.2929C37.8946 15.4804 38 15.7348 38 16V18H40C40.2652 18 40.5196 18.1054 40.7071 18.2929C40.8946 18.4804 41 18.7348 41 19C41 19.2652 40.8946 19.5196 40.7071 19.7071C40.5196 19.8946 40.2652 20 40 20H38V22C38 22.2652 37.8946 22.5196 37.7071 22.7071C37.5196 22.8946 37.2652 23 37 23C36.7348 23 36.4804 22.8946 36.2929 22.7071C36.1054 22.5196 36 22.2652 36 22V20H34C33.7348 20 33.4804 19.8946 33.2929 19.7071C33.1054 19.5196 33 19.2652 33 19ZM40.82 25.835C41.2769 28.5507 40.8588 31.3413 39.6263 33.804C38.3937 36.2666 36.4104 38.2738 33.9628 39.5358C31.5151 40.7977 28.7297 41.2492 26.0087 40.8249C23.2877 40.4006 20.772 39.1226 18.8247 37.1753C16.8774 35.228 15.5994 32.7123 15.1751 29.9913C14.7508 27.2703 15.2023 24.4849 16.4642 22.0372C17.7262 19.5896 19.7334 17.6063 22.196 16.3737C24.6587 15.1412 27.4493 14.7231 30.165 15.18C30.4246 15.2259 30.6555 15.3725 30.8076 15.5878C30.9597 15.8031 31.0206 16.0697 30.9771 16.3297C30.9337 16.5897 30.7893 16.822 30.5754 16.9761C30.3615 17.1302 30.0954 17.1936 29.835 17.1525C28.2577 16.8872 26.6415 16.9687 25.0988 17.3915C23.5562 17.8143 22.1243 18.5682 20.9027 19.6006C19.681 20.6331 18.699 21.9194 18.025 23.3699C17.3511 24.8205 17.0013 26.4005 17 28C16.9976 30.6927 17.9873 33.292 19.78 35.3013C20.8953 33.6851 22.4635 32.4348 24.2875 31.7075C23.3077 30.9358 22.5928 29.878 22.2421 28.6811C21.8914 27.4843 21.9224 26.2079 22.3307 25.0294C22.7391 23.851 23.5045 22.8291 24.5206 22.1059C25.5366 21.3826 26.7528 20.994 28 20.994C29.2472 20.994 30.4634 21.3826 31.4794 22.1059C32.4955 22.8291 33.2609 23.851 33.6693 25.0294C34.0776 26.2079 34.1086 27.4843 33.7579 28.6811C33.4072 29.878 32.6923 30.9358 31.7125 31.7075C33.5365 32.4348 35.1047 33.6851 36.22 35.3013C38.0127 33.292 39.0024 30.6927 39 28C39 27.3852 38.949 26.7714 38.8475 26.165C38.8245 26.0349 38.8275 25.9016 38.8563 25.7726C38.8851 25.6437 38.9392 25.5218 39.0154 25.4139C39.0917 25.306 39.1885 25.2143 39.3004 25.144C39.4122 25.0738 39.5369 25.0264 39.6672 25.0046C39.7975 24.9828 39.9308 24.987 40.0595 25.017C40.1881 25.047 40.3095 25.1023 40.4167 25.1795C40.5239 25.2567 40.6147 25.3544 40.684 25.4669C40.7532 25.5794 40.7994 25.7045 40.82 25.835ZM28 31C28.7911 31 29.5645 30.7654 30.2223 30.3259C30.8801 29.8864 31.3928 29.2616 31.6955 28.5307C31.9983 27.7998 32.0775 26.9956 31.9231 26.2196C31.7688 25.4437 31.3878 24.731 30.8284 24.1716C30.269 23.6122 29.5563 23.2312 28.7804 23.0769C28.0044 22.9225 27.2002 23.0017 26.4693 23.3045C25.7384 23.6072 25.1136 24.1199 24.6741 24.7777C24.2346 25.4355 24 26.2089 24 27C24 28.0609 24.4214 29.0783 25.1716 29.8284C25.9217 30.5786 26.9391 31 28 31ZM28 39C30.4417 39.0025 32.8141 38.1885 34.74 36.6875C34.0166 35.5561 33.02 34.625 31.8421 33.9801C30.6642 33.3351 29.3429 32.9971 28 32.9971C26.6571 32.9971 25.3358 33.3351 24.1579 33.9801C22.98 34.625 21.9834 35.5561 21.26 36.6875C23.1859 38.1885 25.5583 39.0025 28 39Z" fill="black"></path>
	</symbol>
	<symbol fill="none" xmlns="http://www.w3.org/2000/svg" viewBox="0 0 32 32" id="quote">
		<path d="M32 16C32 24.8366 24.8366 32 16 32C7.16344 32 0 24.8366 0 16C0 7.16344 7.16344 0 16 0C24.8366 0 32 7.16344 32 16Z" fill="#FAFB85"></path>
		<path d="M9.54053 15.7354V9.21094H15.3179V16.1587C15.3179 18.3501 14.77 20.1016 13.6743 21.4131C12.5952 22.708 10.877 23.3555 8.51953 23.3555V20.9897C9.84766 20.9897 10.8354 20.6162 11.4829 19.8691C12.1304 19.1055 12.4541 18.0513 12.4541 16.7065V15.7354H9.54053ZM18.3311 15.7354V9.21094H24.0835V16.1587C24.0835 18.3501 23.5356 20.1016 22.4399 21.4131C21.3608 22.708 19.6509 23.3555 17.3101 23.3555V20.9897C19.9165 20.9897 21.2197 19.562 21.2197 16.7065V15.7354H18.3311Z" fill="black" fill-opacity="0.3"></path>
	</symbol>
	<symbol fill="none" xmlns="http://www.w3.org/2000/svg" viewBox="0 0 56 56" id="advantage1">
		<path d="M56 28C56 43.464 43.464 56 28 56C12.536 56 0 43.464 0 28C0 12.536 12.536 0 28 0C43.464 0 56 12.536 56 28Z" fill="#F9ECD3"></path>
		<path d="M32 26C32 26.7911 31.7654 27.5645 31.3259 28.2223C30.8864 28.8801 30.2616 29.3928 29.5307 29.6955C28.7998 29.9983 27.9956 30.0775 27.2196 29.9231C26.4437 29.7688 25.731 29.3878 25.1716 28.8284C24.6122 28.269 24.2312 27.5563 24.0769 26.7804C23.9225 26.0044 24.0017 25.2002 24.3045 24.4693C24.6072 23.7384 25.1199 23.1136 25.7777 22.6741C26.4355 22.2346 27.2089 22 28 22C29.0609 22 30.0783 22.4214 30.8284 23.1716C31.5786 23.9217 32 24.9391 32 26Z" fill="black" fill-opacity="0.2"></path>
		<path d="M40 18V21.5C40 21.7652 39.8946 22.0196 39.7071 22.2071C39.5196 22.3946 39.2652 22.5 39 22.5C38.7348 22.5 38.4804 22.3946 38.2929 22.2071C38.1054 22.0196 38 21.7652 38 21.5V18H34.5C34.2348 18 33.9804 17.8946 33.7929 17.7071C33.6054 17.5196 33.5 17.2652 33.5 17C33.5 16.7348 33.6054 16.4804 33.7929 16.2929C33.9804 16.1054 34.2348 16 34.5 16H38C38.5304 16 39.0391 16.2107 39.4142 16.5858C39.7893 16.9609 40 17.4696 40 18ZM39 33.5C38.7348 33.5 38.4804 33.6054 38.2929 33.7929C38.1054 33.9804 38 34.2348 38 34.5V38H34.5C34.2348 38 33.9804 38.1054 33.7929 38.2929C33.6054 38.4804 33.5 38.7348 33.5 39C33.5 39.2652 33.6054 39.5196 33.7929 39.7071C33.9804 39.8946 34.2348 40 34.5 40H38C38.5304 40 39.0391 39.7893 39.4142 39.4142C39.7893 39.0391 40 38.5304 40 38V34.5C40 34.2348 39.8946 33.9804 39.7071 33.7929C39.5196 33.6054 39.2652 33.5 39 33.5ZM21.5 38H18V34.5C18 34.2348 17.8946 33.9804 17.7071 33.7929C17.5196 33.6054 17.2652 33.5 17 33.5C16.7348 33.5 16.4804 33.6054 16.2929 33.7929C16.1054 33.9804 16 34.2348 16 34.5V38C16 38.5304 16.2107 39.0391 16.5858 39.4142C16.9609 39.7893 17.4696 40 18 40H21.5C21.7652 40 22.0196 39.8946 22.2071 39.7071C22.3946 39.5196 22.5 39.2652 22.5 39C22.5 38.7348 22.3946 38.4804 22.2071 38.2929C22.0196 38.1054 21.7652 38 21.5 38ZM17 22.5C17.2652 22.5 17.5196 22.3946 17.7071 22.2071C17.8946 22.0196 18 21.7652 18 21.5V18H21.5C21.7652 18 22.0196 17.8946 22.2071 17.7071C22.3946 17.5196 22.5 17.2652 22.5 17C22.5 16.7348 22.3946 16.4804 22.2071 16.2929C22.0196 16.1054 21.7652 16 21.5 16H18C17.4696 16 16.9609 16.2107 16.5858 16.5858C16.2107 16.9609 16 17.4696 16 18V21.5C16 21.7652 16.1054 22.0196 16.2929 22.2071C16.4804 22.3946 16.7348 22.5 17 22.5ZM34 34C33.8447 34.0003 33.6914 33.9645 33.5523 33.8953C33.4132 33.826 33.2922 33.7254 33.1987 33.6012C32.5933 32.794 31.8082 32.1388 30.9056 31.6875C30.0031 31.2362 29.0078 31.0012 27.9987 31.0012C26.9897 31.0012 25.9944 31.2362 25.0919 31.6875C24.1893 32.1388 23.4042 32.794 22.7987 33.6012C22.6393 33.8134 22.4021 33.9536 22.1393 33.9908C21.8765 34.0281 21.6097 33.9595 21.3975 33.8C21.1853 33.6405 21.0452 33.4033 21.0079 33.1405C20.9706 32.8778 21.0393 32.6109 21.1987 32.3988C22.085 31.2121 23.2661 30.2779 24.625 29.6887C23.8804 29.0089 23.3587 28.1199 23.1284 27.1382C22.8981 26.1566 22.97 25.1283 23.3346 24.1883C23.6992 23.2482 24.3394 22.4404 25.1713 21.8707C26.0033 21.3011 26.988 20.9962 27.9963 20.9962C29.0045 20.9962 29.9892 21.3011 30.8212 21.8707C31.6531 22.4404 32.2934 23.2482 32.6579 24.1883C33.0225 25.1283 33.0944 26.1566 32.8641 27.1382C32.6338 28.1199 32.1121 29.0089 31.3675 29.6887C32.7273 30.2775 33.9093 31.2118 34.7962 32.3988C34.9078 32.5471 34.976 32.7235 34.993 32.9083C35.01 33.0932 34.9752 33.2791 34.8926 33.4453C34.81 33.6115 34.6827 33.7514 34.525 33.8493C34.3674 33.9473 34.1856 33.9995 34 34ZM28 29C28.5933 29 29.1734 28.8241 29.6667 28.4944C30.1601 28.1648 30.5446 27.6962 30.7716 27.1481C30.9987 26.5999 31.0581 25.9967 30.9424 25.4147C30.8266 24.8328 30.5409 24.2982 30.1213 23.8787C29.7018 23.4591 29.1672 23.1734 28.5853 23.0576C28.0033 22.9419 27.4001 23.0013 26.8519 23.2284C26.3038 23.4554 25.8352 23.8399 25.5056 24.3333C25.1759 24.8266 25 25.4067 25 26C25 26.7957 25.3161 27.5587 25.8787 28.1213C26.4413 28.6839 27.2043 29 28 29Z" fill="black"></path>
	</symbol>
	<symbol fill="none" xmlns="http://www.w3.org/2000/svg" viewBox="0 0 56 56" id="advantage2">
		<path d="M56 28C56 43.464 43.464 56 28 56C12.536 56 0 43.464 0 28C0 12.536 12.536 0 28 0C43.464 0 56 12.536 56 28Z" fill="#F9ECD3"></path>
		<path d="M21 25V20C21 19.7348 21.1054 19.4804 21.2929 19.2929C21.4804 19.1054 21.7348 19 22 19H34C34.2652 19 34.5196 19.1054 34.7071 19.2929C34.8946 19.4804 35 19.7348 35 20V25C35 25.2652 34.8946 25.5196 34.7071 25.7071C34.5196 25.8946 34.2652 26 34 26H22C21.7348 26 21.4804 25.8946 21.2929 25.7071C21.1054 25.5196 21 25.2652 21 25ZM39 30H22C21.7348 30 21.4804 30.1054 21.2929 30.2929C21.1054 30.4804 21 30.7348 21 31V36C21 36.2652 21.1054 36.5196 21.2929 36.7071C21.4804 36.8946 21.7348 37 22 37H39C39.2652 37 39.5196 36.8946 39.7071 36.7071C39.8946 36.5196 40 36.2652 40 36V31C40 30.7348 39.8946 30.4804 39.7071 30.2929C39.5196 30.1054 39.2652 30 39 30Z" fill="black" fill-opacity="0.2"></path>
		<path d="M39 29H22C21.4696 29 20.9609 29.2107 20.5858 29.5858C20.2107 29.9609 20 30.4696 20 31V36C20 36.5304 20.2107 37.0391 20.5858 37.4142C20.9609 37.7893 21.4696 38 22 38H39C39.5304 38 40.0391 37.7893 40.4142 37.4142C40.7893 37.0391 41 36.5304 41 36V31C41 30.4696 40.7893 29.9609 40.4142 29.5858C40.0391 29.2107 39.5304 29 39 29ZM39 36H22V31H39V36ZM18 17V39C18 39.2652 17.8946 39.5196 17.7071 39.7071C17.5196 39.8946 17.2652 40 17 40C16.7348 40 16.4804 39.8946 16.2929 39.7071C16.1054 39.5196 16 39.2652 16 39V17C16 16.7348 16.1054 16.4804 16.2929 16.2929C16.4804 16.1054 16.7348 16 17 16C17.2652 16 17.5196 16.1054 17.7071 16.2929C17.8946 16.4804 18 16.7348 18 17ZM22 27H34C34.5304 27 35.0391 26.7893 35.4142 26.4142C35.7893 26.0391 36 25.5304 36 25V20C36 19.4696 35.7893 18.9609 35.4142 18.5858C35.0391 18.2107 34.5304 18 34 18H22C21.4696 18 20.9609 18.2107 20.5858 18.5858C20.2107 18.9609 20 19.4696 20 20V25C20 25.5304 20.2107 26.0391 20.5858 26.4142C20.9609 26.7893 21.4696 27 22 27ZM22 20H34V25H22V20Z" fill="black"></path>
	</symbol>
</svg>
